<?xml version="1.0" encoding="UTF-8" standalone="no"?>
<!-- Created with Inkscape (http://www.inkscape.org/) -->

<svg
   xmlns:dc="http://purl.org/dc/elements/1.1/"
   xmlns:cc="http://creativecommons.org/ns#"
   xmlns:rdf="http://www.w3.org/1999/02/22-rdf-syntax-ns#"
   xmlns:svg="http://www.w3.org/2000/svg"
   xmlns="http://www.w3.org/2000/svg"
   xmlns:sodipodi="http://sodipodi.sourceforge.net/DTD/sodipodi-0.dtd"
   xmlns:inkscape="http://www.inkscape.org/namespaces/inkscape"
   width="150mm"
   height="150mm"
   viewBox="0 0 150 150"
   version="1.1"
   id="svg8"
   inkscape:version="0.92.1 r15371"
   sodipodi:docname="geology.svg"
   inkscape:export-filename="C:\Users\cni\bitmap.png"
   inkscape:export-xdpi="96"
   inkscape:export-ydpi="96">
  <defs
     id="defs2" />
  <sodipodi:namedview
     id="base"
     pagecolor="#ffffff"
     bordercolor="#666666"
     borderopacity="1.0"
     inkscape:pageopacity="0.0"
     inkscape:pageshadow="2"
     inkscape:zoom="1"
     inkscape:cx="-0.20885"
     inkscape:cy="223.58615"
     inkscape:document-units="mm"
     inkscape:current-layer="layer1"
     showgrid="false"
     inkscape:window-width="1920"
     inkscape:window-height="1027"
     inkscape:window-x="-8"
     inkscape:window-y="-8"
     inkscape:window-maximized="1" />
  <metadata
     id="metadata5">
    <rdf:RDF>
      <cc:Work
         rdf:about="">
        <dc:format>image/svg+xml</dc:format>
        <dc:type
           rdf:resource="http://purl.org/dc/dcmitype/StillImage" />
        <dc:title />
      </cc:Work>
    </rdf:RDF>
  </metadata>
  <g
     inkscape:groupmode="layer"
     id="layer2"
     inkscape:label="Background"
     sodipodi:insensitive="true">
    <rect
       style="fill:#ffffff;fill-opacity:1;stroke:none;stroke-width:0.34809548;stroke-miterlimit:4;stroke-dasharray:none;stroke-opacity:1"
       id="rect4523"
       width="150"
       height="150"
       x="0"
       y="-3.2679014e-007" />
  </g>
  <g
     inkscape:label="Icon"
     inkscape:groupmode="layer"
     id="layer1"
     transform="translate(0,-147)"
     style="display:inline">
    <path
       style="fill:#990037;stroke-width:0.27223232;fill-opacity:1"
       d="M 0,222 V 147 H 75.000005 150 v 75 75 H 75.000005 0 Z m 24.517057,40.02407 9.606288,-10.18757 2.679125,2.50461 c 6.355849,5.94186 9.4346,8.19608 14.785556,10.82579 16.827671,8.26992 35.875023,6.35684 51.315794,-5.15405 2.93776,-2.19005 7.79925,-7.01068 10.33215,-10.24528 7.32384,-9.35283 12.44261,-21.76041 13.50335,-32.73128 0.28644,-2.96255 0.22691,-2.92448 4.63971,-2.96785 3.0255,-0.0297 3.80479,-0.1173 4.0519,-0.45526 0.20508,-0.28046 0.29757,-2.26586 0.28053,-6.0215 -0.0224,-4.94653 -0.0811,-5.65878 -0.5006,-6.07833 -0.44363,-0.44368 -2.22254,-0.48427 -26.79596,-0.61135 l -26.320792,-0.13612 12.290102,-13.37603 12.29011,-13.37604 -0.75385,-0.72223 -0.75386,-0.72223 -2.17682,2.25616 c -1.19725,1.24088 -4.059769,4.27748 -6.361149,6.74799 -2.301379,2.47051 -4.526832,4.71875 -4.945449,4.99609 -0.731363,0.48454 -2.066115,0.50267 -34.136044,0.46359 -29.915046,-0.0364 -33.442548,0.004 -34.027276,0.38678 l -0.652356,0.42744 v 5.96338 c 0,5.0583 0.06493,6.02833 0.427794,6.39119 0.350409,0.35041 1.157486,0.4278 4.461672,0.4278 3.444428,0 4.116689,0.0696 4.600561,0.4764 0.455025,0.38254 0.701401,1.28098 1.250445,4.55989 1.090791,6.51426 2.431505,11.12788 4.81369,16.56471 1.432884,3.27026 2.57317,5.32166 5.211223,9.37511 1.717498,2.63899 2.125749,3.45359 1.935232,3.86153 -0.279361,0.59817 -12.489041,14.04314 -22.972849,25.29708 -3.967787,4.25926 -7.805794,8.41522 -8.528904,9.23546 l -1.314746,1.49137 0.770282,0.6155 c 0.507028,0.40514 0.875985,0.52824 1.079569,0.36017 0.170107,-0.14043 4.632116,-4.83974 9.915572,-10.44292 z m 43.949373,-5.33496 c -8.172349,-1.12326 -14.984979,-4.708 -22.393883,-11.78344 l -2.978211,-2.84417 3.685805,-3.49718 c 2.027193,-1.92344 6.382855,-6.49853 9.679254,-10.16686 12.736403,-14.17345 12.187269,-13.59613 13.076633,-13.74772 0.72958,-0.12437 44.313452,-0.69293 44.442552,-0.57978 0.14315,0.12547 -1.84894,9.09104 -2.47826,11.15353 -2.36402,7.74777 -6.45131,14.64699 -11.878213,20.05006 -5.976111,5.94988 -12.589898,9.61142 -19.932341,11.035 -2.751499,0.53347 -8.654533,0.73364 -11.223336,0.38056 z m -9.496523,-24.9281 c 3.160838,-1.48532 2.933066,-1.33288 2.740691,-1.83421 -0.13285,-0.34619 -0.339931,-0.35055 -1.545487,-0.0325 l -1.392085,0.36723 2.11148,-2.36124 c 1.161316,-1.29868 2.892341,-3.18598 3.846723,-4.19398 1.633518,-1.72529 2.016386,-2.59726 1.25214,-2.85169 -0.459545,-0.153 -10.295745,10.74241 -10.397998,11.5177 -0.121329,0.9199 0.280552,0.84732 3.384536,-0.61128 z m -4.931791,-8.32082 c -1.847336,-2.85978 -4.058867,-7.54655 -5.241049,-11.10706 -1.088834,-3.27936 -2.517572,-9.51564 -2.517572,-10.98893 v -0.71443 h 15.812161 c 8.830061,0 15.772093,0.10437 15.721416,0.23636 -0.136021,0.3543 -22.331533,24.26492 -22.521837,24.26216 -0.09031,-0.001 -0.654207,-0.76095 -1.253119,-1.6881 z m 7.424157,-6.2657 c 3.525186,-3.8084 5.170879,-5.77708 5.063399,-6.05717 -0.276578,-0.72074 -1.55831,-0.45722 -4.271075,0.87814 -2.08669,1.02718 -2.575253,1.37487 -2.375684,1.69066 0.218818,0.34626 0.435907,0.33851 1.682339,-0.0601 0.787104,-0.25171 1.482942,-0.40581 1.546306,-0.34245 0.06336,0.0634 -1.73005,2.12476 -3.985361,4.58088 -3.136495,3.41578 -4.025502,4.54075 -3.781294,4.78496 0.175601,0.1756 0.449655,0.28508 0.609005,0.24327 0.159352,-0.0418 2.639917,-2.615 5.512365,-5.71821 z"
       id="path4496"
       inkscape:connector-curvature="0" />
  </g>
</svg>
