<?xml version="1.0" encoding="UTF-8" standalone="no"?>
<!-- Created with Inkscape (http://www.inkscape.org/) -->

<svg
   xmlns:dc="http://purl.org/dc/elements/1.1/"
   xmlns:cc="http://creativecommons.org/ns#"
   xmlns:rdf="http://www.w3.org/1999/02/22-rdf-syntax-ns#"
   xmlns:svg="http://www.w3.org/2000/svg"
   xmlns="http://www.w3.org/2000/svg"
   xmlns:sodipodi="http://sodipodi.sourceforge.net/DTD/sodipodi-0.dtd"
   xmlns:inkscape="http://www.inkscape.org/namespaces/inkscape"
   width="150mm"
   height="150mm"
   viewBox="0 0 150 150"
   version="1.1"
   id="svg8"
   inkscape:version="0.92.1 r15371"
   sodipodi:docname="underground_fix.svg"
   inkscape:export-filename="C:\Users\cni\bitmap.png"
   inkscape:export-xdpi="96"
   inkscape:export-ydpi="96">
  <defs
     id="defs2" />
  <sodipodi:namedview
     id="base"
     pagecolor="#ffffff"
     bordercolor="#666666"
     borderopacity="1.0"
     inkscape:pageopacity="0.0"
     inkscape:pageshadow="2"
     inkscape:zoom="1.4142136"
     inkscape:cx="183.1181"
     inkscape:cy="315.87025"
     inkscape:document-units="mm"
     inkscape:current-layer="g4487"
     showgrid="false"
     inkscape:window-width="1920"
     inkscape:window-height="1027"
     inkscape:window-x="-8"
     inkscape:window-y="-8"
     inkscape:window-maximized="1" />
  <metadata
     id="metadata5">
    <rdf:RDF>
      <cc:Work
         rdf:about="">
        <dc:format>image/svg+xml</dc:format>
        <dc:type
           rdf:resource="http://purl.org/dc/dcmitype/StillImage" />
        <dc:title></dc:title>
      </cc:Work>
    </rdf:RDF>
  </metadata>
  <g
     inkscape:groupmode="layer"
     id="layer2"
     inkscape:label="Background"
     sodipodi:insensitive="true">
    <rect
       style="fill:#ffffff;fill-opacity:1;stroke:none;stroke-width:0.34809548;stroke-miterlimit:4;stroke-dasharray:none;stroke-opacity:1"
       id="rect4523"
       width="150"
       height="150"
       x="0"
       y="-3.2679014e-007" />
  </g>
  <g
     inkscape:label="Icon"
     inkscape:groupmode="layer"
     id="layer1"
     transform="translate(0,-147)"
     style="display:none"
     sodipodi:insensitive="true">
    <path
       style="fill:#990037;fill-opacity:1;stroke-width:0.27223232"
       d="m 0,222 v -75 h 75 75 v 75 75 H 75 0 Z m 128.68469,33.96098 c -0.11308,-30.11254 -0.0531,-28.78645 -1.55273,-34.32593 -2.98755,-11.03572 -9.91823,-20.11036 -21.06362,-27.57951 -7.024602,-4.70759 -14.297988,-7.60091 -22.220879,-8.83937 -3.877508,-0.6061 -11.653372,-0.59974 -15.653268,0.0129 -21.025026,3.21984 -36.369719,14.66458 -43.404142,32.37272 -0.956414,2.40763 -2.009725,6.2514 -2.622671,9.5707 -0.398222,2.1565 -0.462862,5.70401 -0.539447,29.60527 l -0.08701,27.15517 h 53.624397 53.6244 l -0.10503,-27.97187 z m -91.805774,-6.12522 c 0.0771,-20.48436 0.06497,-20.30287 1.682722,-25.18623 3.996518,-12.06392 15.359366,-21.32227 29.360323,-23.92252 3.637369,-0.67553 10.909157,-0.68442 14.507028,-0.0177 3.727325,0.69068 8.182342,2.21949 11.745642,4.03072 9.120489,4.63595 15.952849,12.75557 18.468929,21.94857 l 0.7285,2.66171 0.0861,19.66878 0.0861,19.66879 H 75.176135 36.807964 l 0.07095,-18.85209 z m -17.61848,-27.53849 c 1.342929,-1.28503 1.429219,-1.44799 1.429219,-2.69913 0,-1.07174 -0.07967,-1.30096 -0.408348,-1.17482 -0.23945,0.0919 -0.408349,0.004 -0.408349,-0.21304 0,-1.04054 0.960972,-5.19481 1.780117,-7.69544 5.272395,-16.09519 18.902646,-26.9796 34.76707,-27.76318 l 3.470962,-0.17144 V 171.18757 159.79492 H 58.257714 56.62432 v 9.64258 9.64258 l -1.837569,0.18186 c -14.547086,1.43973 -27.058197,10.20181 -33.814499,23.6818 -2.459401,4.90692 -3.760025,9.26332 -4.79417,16.05791 l -0.16516,1.08514 -0.932085,-1.01708 c -0.512646,-0.55939 -0.991687,-1.01708 -1.064536,-1.01708 -0.07285,0 -0.132453,0.6668 -0.132453,1.48176 0,1.42255 0.06119,1.54785 1.531311,3.13576 1.731707,1.87045 1.474848,1.89536 3.845277,-0.37288 z m 115.854564,0.2671 c 1.44631,-1.63719 1.54562,-1.83836 1.54562,-3.13068 0,-0.75958 -0.10981,-1.38106 -0.24403,-1.38106 -0.13422,0 -0.63179,0.44163 -1.10571,0.9814 -0.47393,0.53977 -0.89276,0.93792 -0.93073,0.88475 -0.038,-0.0532 -0.21974,-1.19918 -0.40391,-2.54673 -2.00909,-14.69944 -10.99723,-27.50726 -23.81925,-33.94165 -4.56211,-2.28937 -8.93379,-3.53243 -14.671508,-4.17175 l -1.565337,-0.17441 v -9.64466 -9.64466 h -1.769509 -1.76951 v 11.43376 11.43375 l 2.245917,0.002 c 2.839341,0.002 6.715068,0.58617 9.868417,1.48735 3.29343,0.94121 9.00175,3.81342 11.85316,5.96408 4.6133,3.47954 9.34347,9.11364 11.87965,14.14981 1.90063,3.77415 3.69048,9.36426 4.32531,13.50894 0.16926,1.10504 0.14535,1.18454 -0.25603,0.85142 -0.39945,-0.33151 -0.44293,-0.22444 -0.44465,1.09512 -0.002,1.44804 0.015,1.47798 1.70145,3.01604 0.93685,0.85442 1.77349,1.55882 1.8592,1.56535 0.0857,0.006 0.85136,-0.77549 1.70145,-1.73778 z"
       id="path21"
       inkscape:connector-curvature="0" />
  </g>
  <g
     style="display:inline"
     transform="translate(0,-147)"
     id="g4487"
     inkscape:groupmode="layer"
     inkscape:label="Icon copy">
    <path
       inkscape:connector-curvature="0"
       id="path4485"
       d="m 0,222 v -75 h 75 75 v 75 75 H 75 0 Z m 128.68469,33.96098 c -0.11308,-30.11254 -0.0531,-28.78645 -1.55273,-34.32593 -2.98755,-11.03572 -9.91823,-20.11036 -21.06362,-27.57951 -7.024602,-4.70759 -14.297988,-7.60091 -22.220879,-8.83937 -3.877508,-0.6061 -11.653372,-0.59974 -15.653268,0.0129 -21.025026,3.21984 -36.369719,14.66458 -43.404142,32.37272 -0.956414,2.40763 -2.009725,6.2514 -2.622671,9.5707 -0.398222,2.1565 -0.462862,5.70401 -0.539447,29.60527 l -0.08701,27.15517 h 53.624397 53.6244 l -0.10503,-27.97187 z m -91.805774,-6.12522 c 0.0771,-20.48436 0.06497,-20.30287 1.682722,-25.18623 3.996518,-12.06392 15.359366,-21.32227 29.360323,-23.92252 3.637369,-0.67553 10.909157,-0.68442 14.507028,-0.0177 3.727325,0.69068 8.182342,2.21949 11.745642,4.03072 9.120489,4.63595 15.952849,12.75557 18.468929,21.94857 l 0.7285,2.66171 0.0861,19.66878 0.0861,19.66879 H 75.176135 36.807964 l 0.07095,-18.85209 z m -17.61848,-27.53849 c 1.342929,-1.28503 1.429219,-1.44799 1.429219,-2.69913 0,-1.07174 -0.07967,-1.30096 -0.408348,-1.17482 -0.23945,0.0919 -0.408349,0.004 -0.408349,-0.21304 0,-1.04054 0.960972,-5.19481 1.780117,-7.69544 5.272395,-16.09519 18.902646,-26.9796 34.76707,-27.76318 l 3.470962,-0.17144 V 171.18757 159.79492 H 58.257714 56.62432 v 9.64258 9.64258 l -1.837569,0.18186 c -14.547086,1.43973 -27.058197,10.20181 -33.814499,23.6818 -2.459401,4.90692 -3.760025,9.26332 -4.79417,16.05791 l -0.16516,1.08514 -0.932085,-1.01708 c -0.512646,-0.55939 -0.991687,-1.01708 -1.064536,-1.01708 -0.07285,0 -0.132453,0.6668 -0.132453,1.48176 0,1.42255 0.06119,1.54785 1.531311,3.13576 1.731707,1.87045 1.474848,1.89536 3.845277,-0.37288 z"
       style="fill:#990037;fill-opacity:1;stroke-width:0.27223232"
       sodipodi:nodetypes="ccccccccccscccsssccccccsscssccccccccscsssccccccccssccsscc" />
    <circle
       style="fill:#64ffff;fill-opacity:0.50251255;stroke:none;stroke-width:5.26966286;stroke-miterlimit:4;stroke-dasharray:none;stroke-opacity:1"
       id="path4498"
       cx="83.067368"
       cy="233.38983"
       r="50.139763" />
  </g>
  <g
     inkscape:groupmode="layer"
     id="layer3"
     inkscape:label="updated"
     style="display:inline">
    <path
       style="fill:none;stroke:#000000;stroke-width:3.5;stroke-linecap:butt;stroke-linejoin:miter;stroke-miterlimit:4;stroke-dasharray:none;stroke-opacity:1"
       d="m 92.158468,12.79492 v 20.996623 c 0,0 17.729672,3.383573 27.578282,12.46779 10.80157,9.963218 17.19257,22.970464 17.15559,29.305427"
       id="path4490"
       inkscape:connector-curvature="0"
       sodipodi:nodetypes="ccsc" />
  </g>
</svg>
