<?xml version="1.0" encoding="UTF-8" standalone="no"?>
<!-- Created with Inkscape (http://www.inkscape.org/) -->

<svg
   xmlns:dc="http://purl.org/dc/elements/1.1/"
   xmlns:cc="http://creativecommons.org/ns#"
   xmlns:rdf="http://www.w3.org/1999/02/22-rdf-syntax-ns#"
   xmlns:svg="http://www.w3.org/2000/svg"
   xmlns="http://www.w3.org/2000/svg"
   xmlns:sodipodi="http://sodipodi.sourceforge.net/DTD/sodipodi-0.dtd"
   xmlns:inkscape="http://www.inkscape.org/namespaces/inkscape"
   id="svg2985"
   height="180"
   width="180"
   version="1.1"
   inkscape:version="0.48.4 r9939"
   sodipodi:docname="data.svg">
  <defs
     id="defs15" />
  <sodipodi:namedview
     pagecolor="#ffffff"
     bordercolor="#666666"
     borderopacity="1"
     objecttolerance="10"
     gridtolerance="10"
     guidetolerance="10"
     inkscape:pageopacity="0"
     inkscape:pageshadow="2"
     inkscape:window-width="1600"
     inkscape:window-height="837"
     id="namedview13"
     showgrid="false"
     inkscape:zoom="2.5370915"
     inkscape:cx="138.10824"
     inkscape:cy="90.065478"
     inkscape:window-x="-8"
     inkscape:window-y="-8"
     inkscape:window-maximized="1"
     inkscape:current-layer="layer1" />
  <metadata
     id="metadata2990">
    <rdf:RDF>
      <cc:Work
         rdf:about="">
        <dc:format>image/svg+xml</dc:format>
        <dc:type
           rdf:resource="http://purl.org/dc/dcmitype/StillImage" />
        <dc:title></dc:title>
      </cc:Work>
    </rdf:RDF>
  </metadata>
  <g
     id="layer1"
     transform="translate(0,-872.40005)">
    <rect
       id="rect3005"
       rx="22.5"
       ry="22.5"
       height="180"
       width="180"
       y="872.40002"
       x="0"
       style="fill:#aecf74;fill-rule:evenodd" />
    <g
       id="g3"
       transform="matrix(6.5905097,0,0,6.5633267,5.302065,877.08255)"
       style="fill:#ffffff">
      <path
         id="path5"
         d="M 5.708,14.107 H 3.735 c -0.15,0 -0.272,0.124 -0.272,0.274 v 5.717 c 0,0.15 0.122,0.272 0.272,0.272 h 1.973 c 0.15,0 0.272,-0.122 0.272,-0.272 V 14.381 C 5.981,14.231 5.859,14.107 5.708,14.107 z"
         inkscape:connector-curvature="0" />
      <path
         id="path7"
         d="m 21.967,14.107 h -1.973 c -0.15,0 -0.271,0.124 -0.271,0.274 v 5.717 c 0,0.15 0.121,0.272 0.271,0.272 h 1.973 c 0.152,0 0.273,-0.122 0.273,-0.272 v -5.717 c 0,-0.15 -0.121,-0.274 -0.273,-0.274 z"
         inkscape:connector-curvature="0" />
      <path
         id="path9"
         d="M 9.37,10.839 H 7.397 c -0.15,0 -0.273,0.122 -0.273,0.273 v 8.984 c 0,0.15 0.123,0.272 0.273,0.272 H 9.37 c 0.151,0 0.273,-0.122 0.273,-0.272 v -8.984 c 0,-0.152 -0.122,-0.273 -0.273,-0.273 z"
         inkscape:connector-curvature="0" />
      <path
         id="path11"
         d="m 17.734,10.839 h -1.973 c -0.15,0 -0.271,0.122 -0.271,0.273 v 8.984 c 0,0.15 0.121,0.272 0.271,0.272 h 1.973 c 0.152,0 0.273,-0.122 0.273,-0.272 v -8.984 c 10e-4,-0.152 -0.12,-0.273 -0.273,-0.273 z"
         inkscape:connector-curvature="0" />
      <path
         id="path13"
         d="m 13.473,12.829 h -1.974 c -0.15,0 -0.272,0.123 -0.272,0.272 v 6.994 c 0,0.15 0.122,0.272 0.272,0.272 h 1.974 c 0.152,0 0.273,-0.122 0.273,-0.272 v -6.994 c 0,-0.149 -0.121,-0.272 -0.273,-0.272 z"
         inkscape:connector-curvature="0" />
      <path
         id="path15"
         d="m 4.722,10.558 c 0.581,0 1.051,-0.47 1.051,-1.051 0,-0.101 -0.019,-0.196 -0.046,-0.288 L 7.938,7.628 C 8.074,7.692 8.224,7.73 8.384,7.73 8.693,7.73 8.967,7.595 9.16,7.383 l 2.087,1.208 c -0.012,0.062 -0.02,0.126 -0.02,0.19 0,0.58 0.471,1.051 1.051,1.051 0.559,0 1.012,-0.438 1.044,-0.989 L 16.136,8.02 c 0.191,0.262 0.498,0.435 0.848,0.435 0.232,0 0.443,-0.077 0.617,-0.205 l 2.365,1.604 c -0.02,0.083 -0.037,0.17 -0.037,0.26 0,0.581 0.471,1.052 1.051,1.052 0.58,0 1.053,-0.471 1.053,-1.052 0,-0.581 -0.473,-1.051 -1.053,-1.051 -0.232,0 -0.443,0.077 -0.617,0.204 L 18,7.666 c 0.02,-0.084 0.035,-0.17 0.035,-0.26 0,-0.581 -0.469,-1.051 -1.051,-1.051 -0.559,0 -1.012,0.438 -1.045,0.989 L 13.126,8.166 C 12.935,7.903 12.627,7.731 12.278,7.731 c -0.259,0 -0.492,0.096 -0.675,0.251 L 9.431,6.723 c 0,-0.015 0.004,-0.028 0.004,-0.042 0,-0.581 -0.47,-1.052 -1.051,-1.052 -0.581,0 -1.051,0.47 -1.051,1.051 0,0.158 0.038,0.306 0.1,0.441 L 5.318,8.643 C 5.149,8.525 4.944,8.456 4.722,8.456 c -0.581,0 -1.051,0.471 -1.051,1.051 0,0.581 0.47,1.051 1.051,1.051 z"
         inkscape:connector-curvature="0" />
    </g>
  </g>
</svg>
