<?xml version="1.0" encoding="UTF-8" standalone="no"?>
<!-- Created with Inkscape (http://www.inkscape.org/) -->

<svg
   xmlns:dc="http://purl.org/dc/elements/1.1/"
   xmlns:cc="http://creativecommons.org/ns#"
   xmlns:rdf="http://www.w3.org/1999/02/22-rdf-syntax-ns#"
   xmlns:svg="http://www.w3.org/2000/svg"
   xmlns="http://www.w3.org/2000/svg"
   xmlns:sodipodi="http://sodipodi.sourceforge.net/DTD/sodipodi-0.dtd"
   xmlns:inkscape="http://www.inkscape.org/namespaces/inkscape"
   id="svg2985"
   height="180"
   width="180"
   version="1.1"
   inkscape:version="0.48.4 r9939"
   sodipodi:docname="opensource.svg">
  <defs
     id="defs10" />
  <sodipodi:namedview
     pagecolor="#ffffff"
     bordercolor="#666666"
     borderopacity="1"
     objecttolerance="10"
     gridtolerance="10"
     guidetolerance="10"
     inkscape:pageopacity="0"
     inkscape:pageshadow="2"
     inkscape:window-width="784"
     inkscape:window-height="821"
     id="namedview8"
     showgrid="false"
     inkscape:zoom="1.8541911"
     inkscape:cx="112.52369"
     inkscape:cy="108.16751"
     inkscape:window-x="0"
     inkscape:window-y="0"
     inkscape:window-maximized="0"
     inkscape:current-layer="layer1" />
  <metadata
     id="metadata2990">
    <rdf:RDF>
      <cc:Work
         rdf:about="">
        <dc:format>image/svg+xml</dc:format>
        <dc:type
           rdf:resource="http://purl.org/dc/dcmitype/StillImage" />
        <dc:title />
      </cc:Work>
    </rdf:RDF>
  </metadata>
  <g
     id="layer1"
     transform="translate(0,-872.36217)">
    <rect
       id="rect3005"
       rx="22.5"
       ry="22.5"
       height="180"
       width="180"
       y="872.36218"
       x="0"
       style="fill:#78b4be;fill-opacity:1;stroke:none" />
    <g
       transform="matrix(3.7998733,0,0,3.7444553,-31.595946,842.54335)"
       id="g9"
       style="fill:#ffffff;fill-opacity:1">
      <path
         style="fill:#ffffff;fill-opacity:1"
         inkscape:connector-curvature="0"
         d="m 33.334,30.052 c -3.688,-1.566 -4.98,-2.665 -4.98,-4.824 0,-1.733 0.955,-3.684 4.217,-3.684 2.71,0 4.443,0.978 5.333,1.483 l 1.057,-2.794 c -1.271,-0.718 -3.003,-1.399 -5.5,-1.478 V 14.64 h -2.669 v 4.235 c -3.855,0.64 -6.348,3.304 -6.348,6.816 0,3.684 2.669,5.671 6.982,7.367 3.137,1.27 4.518,2.711 4.513,5.037 0.005,2.418 -1.761,4.151 -4.763,4.151 -2.373,0 -4.578,-0.844 -6.056,-1.816 l -1.015,2.831 c 1.478,1.057 3.98,1.821 6.431,1.867 v 4.23 h 2.669 v -4.401 c 4.359,-0.677 6.69,-3.813 6.69,-7.196 10e-4,-3.766 -2.201,-5.926 -6.561,-7.709 z"
         id="path11" />
    </g>
  </g>
</svg>
